{
  "accessors": [
    {
      "bufferView": 2,
      "componentType": 5126,
      "count": 349,
      "max": [
        1.1128231287002563,
        1.1128232479095459,
        0.59855055809020996
      ],
      "min": [
        -1.1128231287002563,
        -1.1128230094909668,
        -1.188048243522644
      ],
      "type": "VEC3"
    },
    {
      "bufferView": 2,
      "byteOffset": 4188,
      "componentType": 5126,
      "count": 349,
      "max": [
        0.98642855882644653,
        0.98642855882644653,
        1
      ],
      "min": [
        -0.98642855882644653,
        -0.98642855882644653,
        -0.98137384653091431
      ],
      "type": "VEC3"
    },
    {
      "bufferView": 1,
      "componentType": 5126,
      "count": 349,
      "max": [
        0.72036147117614746,
        0.99988502264022827
      ],
      "min": [
        0.00011498998355818912,
        0.00011498998355818912
      ],
      "type": "VEC2"
    },
    {
      "bufferView": 0,
      "componentType": 5125,
      "count": 1722,
      "max": [
        348
      ],
      "min": [
        0
      ],
      "type": "SCALAR"
    },
    {
      "bufferView": 2,
      "byteOffset": 8376,
      "componentType": 5126,
      "count": 221,
      "max": [
        0.87286210060119629,
        0.87286192178726196,
        0.53276443481445312
      ],
      "min": [
        -0.87286192178726196,
        -0.87286210060119629,
        -0.77158200740814209
      ],
      "type": "VEC3"
    },
    {
      "bufferView": 2,
      "byteOffset": 11028,
      "componentType": 5126,
      "count": 221,
      "max": [
        1,
        1,
        1
      ],
      "min": [
        -1,
        -1,
        -0.70520776510238647
      ],
      "type": "VEC3"
    },
    {
      "bufferView": 1,
      "byteOffset": 2792,
      "componentType": 5126,
      "count": 221,
      "max": [
        0.54118698835372925,
        0.99992424249649048
      ],
      "min": [
        7.5854208262171596e-05,
        7.5854208262171596e-05
      ],
      "type": "VEC2"
    },
    {
      "bufferView": 0,
      "byteOffset": 6888,
      "componentType": 5125,
      "count": 1104,
      "max": [
        220
      ],
      "min": [
        0
      ],
      "type": "SCALAR"
    },
    {
      "bufferView": 2,
      "byteOffset": 13680,
      "componentType": 5126,
      "count": 496,
      "max": [
        0.52806347608566284,
        0.52806341648101807,
        0.14350032806396484
      ],
      "min": [
        -0.52806329727172852,
        -0.52806341648101807,
        -0.060190439224243164
      ],
      "type": "VEC3"
    },
    {
      "bufferView": 2,
      "byteOffset": 19632,
      "componentType": 5126,
      "count": 496,
      "max": [
        0.49987220764160156,
        0.49987217783927917,
        -0.86037278175354004
      ],
      "min": [
        -0.49987208843231201,
        -0.49987137317657471,
        -0.99293363094329834
      ],
      "type": "VEC3"
    },
    {
      "bufferView": 1,
      "byteOffset": 4560,
      "componentType": 5126,
      "count": 496,
      "max": [
        0.99990016222000122,
        0.99758392572402954
      ],
      "min": [
        9.9864155345130712e-05,
        9.9864155345130712e-05
      ],
      "type": "VEC2"
    },
    {
      "bufferView": 0,
      "byteOffset": 11304,
      "componentType": 5125,
      "count": 720,
      "max": [
        495
      ],
      "min": [
        0
      ],
      "type": "SCALAR"
    },
    {
      "bufferView": 2,
      "byteOffset": 25584,
      "componentType": 5126,
      "count": 640,
      "max": [
        0.94086313247680664,
        0.97299236059188843,
        0.4492652416229248
      ],
      "min": [
        -0.94893473386764526,
        -0.96492940187454224,
        -0.44999527931213379
      ],
      "type": "VEC3"
    },
    {
      "bufferView": 2,
      "byteOffset": 33264,
      "componentType": 5126,
      "count": 640,
      "max": [
        0.99442213773727417,
        0.99454867839813232,
        0.91411358118057251
      ],
      "min": [
        -0.9945073127746582,
        -0.99446487426757812,
        -0.98905998468399048
      ],
      "type": "VEC3"
    },
    {
      "bufferView": 1,
      "byteOffset": 8528,
      "componentType": 5126,
      "count": 640,
      "max": [
        0.97825360298156738,
        0.49000000953674316
      ],
      "min": [
        0.021746441721916199,
        0.055835902690887451
      ],
      "type": "VEC2"
    },
    {
      "bufferView": 0,
      "byteOffset": 14184,
      "componentType": 5125,
      "count": 768,
      "max": [
        639
      ],
      "min": [
        0
      ],
      "type": "SCALAR"
    }
  ],
  "asset": {
    "extras": {
      "author": "siapap (https://sketchfab.com/siapap)",
      "license": "CC-BY-4.0 (http://creativecommons.org/licenses/by/4.0/)",
      "source": "https://sketchfab.com/3d-models/another-cactus-044cd2cde7e84eaa8786631184783d41",
      "title": "Another cactus"
    },
    "generator": "Sketchfab-8.60.0",
    "version": "2.0"
  },
  "bufferViews": [
    {
      "buffer": 0,
      "byteLength": 17256,
      "byteOffset": 0,
      "name": "floatBufferViews",
      "target": 34963
    },
    {
      "buffer": 0,
      "byteLength": 13648,
      "byteOffset": 17256,
      "byteStride": 8,
      "name": "floatBufferViews",
      "target": 34962
    },
    {
      "buffer": 0,
      "byteLength": 40944,
      "byteOffset": 30904,
      "byteStride": 12,
      "name": "floatBufferViews",
      "target": 34962
    }
  ],
  "buffers": [
    {
      "byteLength": 71848,
      "uri": "scene.bin"
    }
  ],
  "images": [
    {
      "uri": "textures/ceramic_baseColor.png"
    },
    {
      "uri": "textures/cactus_baseColor.png"
    },
    {
      "uri": "textures/flower_baseColor.png"
    },
    {
      "uri": "textures/flower_emissive.png"
    }
  ],
  "materials": [
    {
      "doubleSided": true,
      "emissiveFactor": [
        0,
        0,
        0
      ],
      "name": "ceramic",
      "pbrMetallicRoughness": {
        "baseColorFactor": [
          1,
          1,
          1,
          1
        ],
        "baseColorTexture": {
          "index": 0,
          "texCoord": 0
        },
        "metallicFactor": 0,
        "roughnessFactor": 0.95273710410000001
      }
    },
    {
      "doubleSided": true,
      "emissiveFactor": [
        0,
        0,
        0
      ],
      "name": "cactus",
      "pbrMetallicRoughness": {
        "baseColorFactor": [
          1,
          1,
          1,
          1
        ],
        "baseColorTexture": {
          "index": 1,
          "texCoord": 0
        },
        "metallicFactor": 0,
        "roughnessFactor": 0.92394840469999995
      }
    },
    {
      "alphaCutoff": 1,
      "alphaMode": "MASK",
      "doubleSided": true,
      "emissiveFactor": [
        0,
        0,
        0
      ],
      "emissiveTexture": {
        "index": 3,
        "texCoord": 0
      },
      "name": "flower",
      "pbrMetallicRoughness": {
        "baseColorFactor": [
          1,
          1,
          1,
          1
        ],
        "baseColorTexture": {
          "index": 2,
          "texCoord": 0
        },
        "metallicFactor": 0,
        "roughnessFactor": 0.80404082060000004
      }
    },
    {
      "doubleSided": true,
      "emissiveFactor": [
        0,
        0,
        0
      ],
      "name": "cactus_spike",
      "pbrMetallicRoughness": {
        "baseColorFactor": [
          0.80000000000000004,
          0.80000000000000004,
          0.80000000000000004,
          1
        ],
        "metallicFactor": 0,
        "roughnessFactor": 0.82111456180001685
      }
    }
  ],
  "meshes": [
    {
      "name": "pot_ceramic_0",
      "primitives": [
        {
          "attributes": {
            "NORMAL": 1,
            "POSITION": 0,
            "TEXCOORD_0": 2
          },
          "indices": 3,
          "material": 0,
          "mode": 4
        }
      ]
    },
    {
      "name": "cactus_cactus_0",
      "primitives": [
        {
          "attributes": {
            "NORMAL": 5,
            "POSITION": 4,
            "TEXCOORD_0": 6
          },
          "indices": 7,
          "material": 1,
          "mode": 4
        }
      ]
    },
    {
      "name": "Sphere_flower_0",
      "primitives": [
        {
          "attributes": {
            "NORMAL": 9,
            "POSITION": 8,
            "TEXCOORD_0": 10
          },
          "indices": 11,
          "material": 2,
          "mode": 4
        }
      ]
    },
    {
      "name": "spikes_cactus spike_0",
      "primitives": [
        {
          "attributes": {
            "NORMAL": 13,
            "POSITION": 12,
            "TEXCOORD_0": 14
          },
          "indices": 15,
          "material": 3,
          "mode": 4
        }
      ]
    }
  ],
  "nodes": [
    {
      "children": [
        1
      ],
      "name": "RootNode (gltf orientation matrix)",
      "rotation": [
        -0.70710678118654746,
        -0,
        -0,
        0.70710678118654757
      ]
    },
    {
      "children": [
        2
      ],
      "name": "RootNode (model correction matrix)"
    },
    {
      "children": [
        3
      ],
      "matrix": [
        1,
        0,
        0,
        0,
        0,
        0,
        1,
        0,
        0,
        -1,
        0,
        0,
        0,
        0,
        0,
        1
      ],
      "name": "640bcdb2a5a048208d38f030cb10e29d.fbx"
    },
    {
      "children": [
        4,
        10
      ],
      "name": "RootNode"
    },
    {
      "children": [
        5,
        6,
        8
      ],
      "matrix": [
        100,
        0,
        0,
        0,
        -0,
        -1.6292067939183141e-05,
        -99.999999999998678,
        0,
        0,
        99.999999999998678,
        -1.6292067939183141e-05,
        0,
        -1.593238380337425e-06,
        120.55289459228516,
        1.5550831449218094e-05,
        1
      ],
      "name": "pot"
    },
    {
      "mesh": 0,
      "name": "pot_ceramic_0"
    },
    {
      "children": [
        7
      ],
      "matrix": [
        1,
        0,
        0,
        0,
        0,
        1,
        -2.646977960169688e-23,
        0,
        0,
        2.646977960169688e-23,
        1,
        0,
        1.2067381760516582e-08,
        -1.7283383613175829e-08,
        1.0088636875152588,
        1
      ],
      "name": "cactus"
    },
    {
      "mesh": 1,
      "name": "cactus_cactus_0"
    },
    {
      "children": [
        9
      ],
      "matrix": [
        1,
        0,
        0,
        0,
        0,
        1,
        -2.646977960169688e-23,
        0,
        0,
        2.646977960169688e-23,
        1,
        0,
        3.4501077550430637e-08,
        5.4203525223783799e-08,
        1.6072554588317871,
        1
      ],
      "name": "Sphere"
    },
    {
      "mesh": 2,
      "name": "Sphere_flower_0"
    },
    {
      "children": [
        11
      ],
      "matrix": [
        100,
        0,
        0,
        0,
        -0,
        -1.6292067939183141e-05,
        -99.999999999998678,
        0,
        0,
        99.999999999998678,
        -1.6292067939183141e-05,
        0,
        -0.040153291076421738,
        233.92367553710938,
        0.44532319903373718,
        1
      ],
      "name": "spikes"
    },
    {
      "mesh": 3,
      "name": "spikes_cactus spike_0"
    }
  ],
  "samplers": [
    {
      "magFilter": 9729,
      "minFilter": 9987,
      "wrapS": 10497,
      "wrapT": 10497
    }
  ],
  "scene": 0,
  "scenes": [
    {
      "name": "OSG_Scene",
      "nodes": [
        0
      ]
    }
  ],
  "textures": [
    {
      "sampler": 0,
      "source": 0
    },
    {
      "sampler": 0,
      "source": 1
    },
    {
      "sampler": 0,
      "source": 2
    },
    {
      "sampler": 0,
      "source": 3
    }
  ]
}

