{
  "accessors": [
    {
      "bufferView": 2,
      "componentType": 5126,
      "count": 27,
      "max": [
        1.3710919618606567,
        1.3710919618606567,
        2.3929979801177979
      ],
      "min": [
        -1.3710919618606567,
        -1.3710919618606567,
        2.1637589931488037
      ],
      "type": "VEC3"
    },
    {
      "bufferView": 2,
      "byteOffset": 324,
      "componentType": 5126,
      "count": 27,
      "max": [
        0.60212916135787964,
        0.69080197811126709,
        1
      ],
      "min": [
        -0.60212916135787964,
        -0.69080197811126709,
        0.6815338134765625
      ],
      "type": "VEC3"
    },
    {
      "bufferView": 3,
      "componentType": 5126,
      "count": 27,
      "max": [
        0.92891305685043335,
        0.45414939522743225,
        0.48489603400230408,
        1
      ],
      "min": [
        0.78444951772689819,
        0.23822546005249023,
        -0.48489594459533691,
        1
      ],
      "type": "VEC4"
    },
    {
      "bufferView": 1,
      "componentType": 5126,
      "count": 27,
      "max": [
        0.99431002140045166,
        0.9996650218963623
      ],
      "min": [
        9.9999997473787516e-05,
        0.00033499998971819878
      ],
      "type": "VEC2"
    },
    {
      "bufferView": 0,
      "componentType": 5125,
      "count": 120,
      "max": [
        26
      ],
      "min": [
        0
      ],
      "type": "SCALAR"
    },
    {
      "bufferView": 2,
      "byteOffset": 648,
      "componentType": 5126,
      "count": 836,
      "max": [
        1.6142829656600952,
        1.6142829656600952,
        2.7047140598297119
      ],
      "min": [
        -1.6142829656600952,
        -1.6142829656600952,
        0
      ],
      "type": "VEC3"
    },
    {
      "bufferView": 2,
      "byteOffset": 10680,
      "componentType": 5126,
      "count": 836,
      "max": [
        1,
        1,
        1
      ],
      "min": [
        -1,
        -1,
        -1
      ],
      "type": "VEC3"
    },
    {
      "bufferView": 3,
      "byteOffset": 432,
      "componentType": 5126,
      "count": 836,
      "max": [
        0.99999743700027466,
        0.99965250492095947,
        0.98610353469848633,
        1
      ],
      "min": [
        -0.94406157732009888,
        -0.99978989362716675,
        -0.98610371351242065,
        1
      ],
      "type": "VEC4"
    },
    {
      "bufferView": 1,
      "byteOffset": 216,
      "componentType": 5126,
      "count": 836,
      "max": [
        0.95761799812316895,
        0.92877602577209473
      ],
      "min": [
        0.015564999543130398,
        0.01193699985742569
      ],
      "type": "VEC2"
    },
    {
      "bufferView": 0,
      "byteOffset": 480,
      "componentType": 5125,
      "count": 4416,
      "max": [
        835
      ],
      "min": [
        0
      ],
      "type": "SCALAR"
    },
    {
      "bufferView": 2,
      "byteOffset": 20712,
      "componentType": 5126,
      "count": 763,
      "max": [
        0.85524600744247437,
        0.50330102443695068,
        6.6089940071105957
      ],
      "min": [
        -0.97123098373413086,
        -0.42461898922920227,
        0.80508500337600708
      ],
      "type": "VEC3"
    },
    {
      "bufferView": 2,
      "byteOffset": 29868,
      "componentType": 5126,
      "count": 763,
      "max": [
        0.99940216541290283,
        0.99946707487106323,
        0.99162077903747559
      ],
      "min": [
        -0.99944531917572021,
        -0.99945110082626343,
        -0.81558948755264282
      ],
      "type": "VEC3"
    },
    {
      "bufferView": 3,
      "byteOffset": 13808,
      "componentType": 5126,
      "count": 763,
      "max": [
        0.99982547760009766,
        0.99891585111618042,
        0.99872273206710815,
        1
      ],
      "min": [
        -0.99949580430984497,
        -0.99986422061920166,
        -0.87146109342575073,
        -1
      ],
      "type": "VEC4"
    },
    {
      "bufferView": 1,
      "byteOffset": 6904,
      "componentType": 5126,
      "count": 763,
      "max": [
        0.97844702005386353,
        0.95460599660873413
      ],
      "min": [
        0.084689997136592865,
        0.0029410000424832106
      ],
      "type": "VEC2"
    },
    {
      "bufferView": 0,
      "byteOffset": 18144,
      "componentType": 5125,
      "count": 3780,
      "max": [
        762
      ],
      "min": [
        0
      ],
      "type": "SCALAR"
    },
    {
      "bufferView": 2,
      "byteOffset": 39024,
      "componentType": 5126,
      "count": 8284,
      "max": [
        3.5433220863342285,
        2.9988009929656982,
        10.938905715942383
      ],
      "min": [
        -2.8901479244232178,
        -2.1966249942779541,
        3.0544259548187256
      ],
      "type": "VEC3"
    },
    {
      "bufferView": 2,
      "byteOffset": 138432,
      "componentType": 5126,
      "count": 8284,
      "max": [
        0.99966341257095337,
        0.99983257055282593,
        0.99987751245498657
      ],
      "min": [
        -0.9990801215171814,
        -0.99852019548416138,
        -0.99958807229995728
      ],
      "type": "VEC3"
    },
    {
      "bufferView": 3,
      "byteOffset": 26016,
      "componentType": 5126,
      "count": 8284,
      "max": [
        0.99983978271484375,
        0.99992942810058594,
        0.99624550342559814,
        1
      ],
      "min": [
        -0.99987083673477173,
        -0.99990880489349365,
        -0.99999165534973145,
        -1
      ],
      "type": "VEC4"
    },
    {
      "bufferView": 1,
      "byteOffset": 13008,
      "componentType": 5126,
      "count": 8284,
      "max": [
        0.99680197238922119,
        0.9963189959526062
      ],
      "min": [
        -0.274850994348526,
        0.0031979999039322138
      ],
      "type": "VEC2"
    },
    {
      "bufferView": 0,
      "byteOffset": 33264,
      "componentType": 5125,
      "count": 24570,
      "max": [
        8283
      ],
      "min": [
        0
      ],
      "type": "SCALAR"
    },
    {
      "bufferView": 2,
      "byteOffset": 237840,
      "componentType": 5126,
      "count": 128,
      "max": [
        0.20079000294208527,
        0.36469399929046631,
        8.4754066467285156
      ],
      "min": [
        -0.17521600425243378,
        0.014557000249624252,
        6.5946130752563477
      ],
      "type": "VEC3"
    },
    {
      "bufferView": 2,
      "byteOffset": 239376,
      "componentType": 5126,
      "count": 128,
      "max": [
        0.98893076181411743,
        0.98862087726593018,
        0.71184384822845459
      ],
      "min": [
        -0.98209381103515625,
        -0.98515564203262329,
        -0.67071235179901123
      ],
      "type": "VEC3"
    },
    {
      "bufferView": 3,
      "byteOffset": 158560,
      "componentType": 5126,
      "count": 128,
      "max": [
        0.99445474147796631,
        0.41680130362510681,
        0.71902048587799072,
        1
      ],
      "min": [
        0,
        -0.32928124070167542,
        -0.75489431619644165,
        -1
      ],
      "type": "VEC4"
    },
    {
      "bufferView": 1,
      "byteOffset": 79280,
      "componentType": 5126,
      "count": 128,
      "max": [
        0.97844702005386353,
        0.057250000536441803
      ],
      "min": [
        0.87811398506164551,
        0.0029410000424832106
      ],
      "type": "VEC2"
    },
    {
      "bufferView": 0,
      "byteOffset": 131544,
      "componentType": 5125,
      "count": 756,
      "max": [
        127
      ],
      "min": [
        0
      ],
      "type": "SCALAR"
    }
  ],
  "asset": {
    "extras": {
      "author": "Asia Matusik (https://sketchfab.com/asiam)",
      "license": "CC-BY-4.0 (http://creativecommons.org/licenses/by/4.0/)",
      "source": "https://sketchfab.com/models/c2207e3e18ba454f8ceb43f208d0927c",
      "title": "Pot plant - Dracena"
    },
    "generator": "Sketchfab-3.19.8",
    "version": "2.0"
  },
  "bufferViews": [
    {
      "buffer": 0,
      "byteLength": 134568,
      "byteOffset": 0,
      "name": "floatBufferViews",
      "target": 34963
    },
    {
      "buffer": 0,
      "byteLength": 80304,
      "byteOffset": 134568,
      "byteStride": 8,
      "name": "floatBufferViews",
      "target": 34962
    },
    {
      "buffer": 0,
      "byteLength": 240912,
      "byteOffset": 214872,
      "byteStride": 12,
      "name": "floatBufferViews",
      "target": 34962
    },
    {
      "buffer": 0,
      "byteLength": 160608,
      "byteOffset": 455784,
      "byteStride": 16,
      "name": "floatBufferViews",
      "target": 34962
    }
  ],
  "buffers": [
    {
      "byteLength": 616392,
      "uri": "scene.bin"
    }
  ],
  "images": [
    {
      "uri": "textures/PLANT01_metallicRoughness.png"
    },
    {
      "uri": "textures/PLANT01_normal.png"
    },
    {
      "uri": "textures/PLANT01_baseColor.png"
    },
    {
      "uri": "textures/material_metallicRoughness.png"
    },
    {
      "uri": "textures/material_normal.png"
    },
    {
      "uri": "textures/material_baseColor.png"
    },
    {
      "uri": "textures/PLANT02_baseColor.png"
    },
    {
      "uri": "textures/PLANT02_metallicRoughness.png"
    },
    {
      "uri": "textures/dirt_baseColor.png"
    },
    {
      "uri": "textures/dirt_metallicRoughness.png"
    }
  ],
  "materials": [
    {
      "doubleSided": true,
      "emissiveFactor": [
        0,
        0,
        0
      ],
      "name": "PLANT01",
      "normalTexture": {
        "index": 1,
        "scale": 1,
        "texCoord": 0
      },
      "occlusionTexture": {
        "index": 0,
        "strength": 1,
        "texCoord": 0
      },
      "pbrMetallicRoughness": {
        "baseColorFactor": [
          1,
          1,
          1,
          1
        ],
        "baseColorTexture": {
          "index": 2,
          "texCoord": 0
        },
        "metallicFactor": 0,
        "metallicRoughnessTexture": {
          "index": 0,
          "texCoord": 0
        },
        "roughnessFactor": 1
      }
    },
    {
      "doubleSided": true,
      "emissiveFactor": [
        0,
        0,
        0
      ],
      "name": "PLANT02",
      "occlusionTexture": {
        "index": 7,
        "strength": 1,
        "texCoord": 0
      },
      "pbrMetallicRoughness": {
        "baseColorFactor": [
          1,
          1,
          1,
          1
        ],
        "baseColorTexture": {
          "index": 6,
          "texCoord": 0
        },
        "metallicFactor": 1,
        "metallicRoughnessTexture": {
          "index": 7,
          "texCoord": 0
        },
        "roughnessFactor": 1
      }
    },
    {
      "doubleSided": true,
      "emissiveFactor": [
        0,
        0,
        0
      ],
      "name": "dirt",
      "occlusionTexture": {
        "index": 9,
        "strength": 1,
        "texCoord": 0
      },
      "pbrMetallicRoughness": {
        "baseColorFactor": [
          1,
          1,
          1,
          1
        ],
        "baseColorTexture": {
          "index": 8,
          "texCoord": 0
        },
        "metallicFactor": 0,
        "roughnessFactor": 0.59999999999999998
      }
    },
    {
      "doubleSided": true,
      "emissiveFactor": [
        0,
        0,
        0
      ],
      "name": "material",
      "normalTexture": {
        "index": 4,
        "scale": 1,
        "texCoord": 0
      },
      "occlusionTexture": {
        "index": 3,
        "strength": 1,
        "texCoord": 0
      },
      "pbrMetallicRoughness": {
        "baseColorFactor": [
          1,
          1,
          1,
          1
        ],
        "baseColorTexture": {
          "index": 5,
          "texCoord": 0
        },
        "metallicFactor": 0,
        "roughnessFactor": 0.59999999999999998
      }
    }
  ],
  "meshes": [
    {
      "primitives": [
        {
          "attributes": {
            "NORMAL": 1,
            "POSITION": 0,
            "TANGENT": 2,
            "TEXCOORD_0": 3
          },
          "indices": 4,
          "material": 2,
          "mode": 4
        }
      ]
    },
    {
      "primitives": [
        {
          "attributes": {
            "NORMAL": 6,
            "POSITION": 5,
            "TANGENT": 7,
            "TEXCOORD_0": 8
          },
          "indices": 9,
          "material": 3,
          "mode": 4
        }
      ]
    },
    {
      "primitives": [
        {
          "attributes": {
            "NORMAL": 11,
            "POSITION": 10,
            "TANGENT": 12,
            "TEXCOORD_0": 13
          },
          "indices": 14,
          "material": 0,
          "mode": 4
        }
      ]
    },
    {
      "primitives": [
        {
          "attributes": {
            "NORMAL": 16,
            "POSITION": 15,
            "TANGENT": 17,
            "TEXCOORD_0": 18
          },
          "indices": 19,
          "material": 1,
          "mode": 4
        }
      ]
    },
    {
      "primitives": [
        {
          "attributes": {
            "NORMAL": 21,
            "POSITION": 20,
            "TANGENT": 22,
            "TEXCOORD_0": 23
          },
          "indices": 24,
          "material": 1,
          "mode": 4
        }
      ]
    }
  ],
  "nodes": [
    {
      "children": [
        1
      ],
      "name": "RootNode (gltf orientation matrix)",
      "rotation": [
        -0.70710678118654746,
        -0,
        -0,
        0.70710678118654757
      ]
    },
    {
      "children": [
        2
      ],
      "name": "RootNode (model correction matrix)"
    },
    {
      "children": [
        3,
        4,
        5,
        6,
        7
      ],
      "name": "dracena.obj.cleaner.materialmerger.gles"
    },
    {
      "mesh": 0,
      "name": ""
    },
    {
      "mesh": 1,
      "name": ""
    },
    {
      "mesh": 2,
      "name": ""
    },
    {
      "mesh": 3,
      "name": ""
    },
    {
      "mesh": 4,
      "name": ""
    }
  ],
  "samplers": [
    {
      "magFilter": 9729,
      "minFilter": 9987,
      "wrapS": 10497,
      "wrapT": 10497
    }
  ],
  "scene": 0,
  "scenes": [
    {
      "name": "OSG_Scene",
      "nodes": [
        0
      ]
    }
  ],
  "textures": [
    {
      "sampler": 0,
      "source": 0
    },
    {
      "sampler": 0,
      "source": 1
    },
    {
      "sampler": 0,
      "source": 2
    },
    {
      "sampler": 0,
      "source": 3
    },
    {
      "sampler": 0,
      "source": 4
    },
    {
      "sampler": 0,
      "source": 5
    },
    {
      "sampler": 0,
      "source": 6
    },
    {
      "sampler": 0,
      "source": 7
    },
    {
      "sampler": 0,
      "source": 8
    },
    {
      "sampler": 0,
      "source": 9
    }
  ]
}

