{
  "accessors": [
    {
      "bufferView": 2,
      "componentType": 5126,
      "count": 881,
      "max": [
        28.62156867980957,
        31.014339447021484,
        6.4985923767089844
      ],
      "min": [
        -40.684074401855469,
        -38.291305541992188,
        -60.128917694091797
      ],
      "type": "VEC3"
    },
    {
      "bufferView": 2,
      "byteOffset": 10572,
      "componentType": 5126,
      "count": 881,
      "max": [
        1,
        1,
        1
      ],
      "min": [
        -1,
        -1,
        -1
      ],
      "type": "VEC3"
    },
    {
      "bufferView": 3,
      "componentType": 5126,
      "count": 881,
      "max": [
        1,
        1,
        1,
        1
      ],
      "min": [
        -1,
        -1,
        -1,
        1
      ],
      "type": "VEC4"
    },
    {
      "bufferView": 1,
      "componentType": 5126,
      "count": 881,
      "max": [
        0.99950003623962402,
        0.99005591869354248
      ],
      "min": [
        0.00050000002374872565,
        0.00050000002374872565
      ],
      "type": "VEC2"
    },
    {
      "bufferView": 0,
      "componentType": 5125,
      "count": 3552,
      "max": [
        880
      ],
      "min": [
        0
      ],
      "type": "SCALAR"
    },
    {
      "bufferView": 2,
      "byteOffset": 21144,
      "componentType": 5126,
      "count": 41,
      "max": [
        18.982912063598633,
        21.562648773193359,
        0.7712864875793457
      ],
      "min": [
        -31.419336318969727,
        -28.839599609375,
        0.77128595113754272
      ],
      "type": "VEC3"
    },
    {
      "bufferView": 2,
      "byteOffset": 21636,
      "componentType": 5126,
      "count": 41,
      "max": [
        3.3659222964388391e-08,
        2.777963636901859e-08,
        1
      ],
      "min": [
        -3.3659180331824246e-08,
        -2.0934969313657348e-08,
        1
      ],
      "type": "VEC3"
    },
    {
      "bufferView": 3,
      "byteOffset": 14096,
      "componentType": 5126,
      "count": 41,
      "max": [
        0.18692837655544281,
        -0.98237353563308716,
        2.7779634592661751e-08,
        1
      ],
      "min": [
        -0.17440848052501678,
        -1,
        -2.0991064886288768e-08,
        1
      ],
      "type": "VEC4"
    },
    {
      "bufferView": 1,
      "byteOffset": 7048,
      "componentType": 5126,
      "count": 41,
      "max": [
        1,
        1
      ],
      "min": [
        0,
        0
      ],
      "type": "VEC2"
    },
    {
      "bufferView": 0,
      "byteOffset": 14208,
      "componentType": 5125,
      "count": 192,
      "max": [
        40
      ],
      "min": [
        0
      ],
      "type": "SCALAR"
    },
    {
      "bufferView": 2,
      "byteOffset": 22128,
      "componentType": 5126,
      "count": 643,
      "max": [
        16.218708038330078,
        26.612396240234375,
        114.07521820068359
      ],
      "min": [
        -35.723709106445312,
        -23.769737243652344,
        -4.7520904541015625
      ],
      "type": "VEC3"
    },
    {
      "bufferView": 2,
      "byteOffset": 29844,
      "componentType": 5126,
      "count": 643,
      "max": [
        1,
        1,
        0.99925822019577026
      ],
      "min": [
        -1,
        -1,
        -1
      ],
      "type": "VEC3"
    },
    {
      "bufferView": 3,
      "byteOffset": 14752,
      "componentType": 5126,
      "count": 643,
      "max": [
        1,
        0.99999934434890747,
        0.97291630506515503,
        1
      ],
      "min": [
        -0.9993520975112915,
        -0.99897140264511108,
        -0.99651265144348145,
        -1
      ],
      "type": "VEC4"
    },
    {
      "bufferView": 1,
      "byteOffset": 7376,
      "componentType": 5126,
      "count": 643,
      "max": [
        0.99776434898376465,
        0.99950003623962402
      ],
      "min": [
        0.00050000002374872565,
        0.00050000002374872565
      ],
      "type": "VEC2"
    },
    {
      "bufferView": 0,
      "byteOffset": 14976,
      "componentType": 5125,
      "count": 2760,
      "max": [
        642
      ],
      "min": [
        0
      ],
      "type": "SCALAR"
    },
    {
      "bufferView": 2,
      "byteOffset": 37560,
      "componentType": 5126,
      "count": 315,
      "max": [
        51.580711364746094,
        58.663978576660156,
        0.0044994354248046875
      ],
      "min": [
        -49.164215087890625,
        -95.7034912109375,
        -70.23077392578125
      ],
      "type": "VEC3"
    },
    {
      "bufferView": 2,
      "byteOffset": 41340,
      "componentType": 5126,
      "count": 315,
      "max": [
        0.99878078699111938,
        0.98966175317764282,
        1
      ],
      "min": [
        -0.99676752090454102,
        -0.030576510354876518,
        -0.99748325347900391
      ],
      "type": "VEC3"
    },
    {
      "bufferView": 3,
      "byteOffset": 25040,
      "componentType": 5126,
      "count": 315,
      "max": [
        1,
        0.55822676420211792,
        0.99761933088302612,
        1
      ],
      "min": [
        -0.99881899356842041,
        -0.82701981067657471,
        -0.9965553879737854,
        1
      ],
      "type": "VEC4"
    },
    {
      "bufferView": 1,
      "byteOffset": 12520,
      "componentType": 5126,
      "count": 315,
      "max": [
        1,
        1
      ],
      "min": [
        0,
        0
      ],
      "type": "VEC2"
    },
    {
      "bufferView": 0,
      "byteOffset": 26016,
      "componentType": 5125,
      "count": 1272,
      "max": [
        314
      ],
      "min": [
        0
      ],
      "type": "SCALAR"
    }
  ],
  "asset": {
    "extras": {
      "author": "sskjellestad (https://sketchfab.com/sskjellestad)",
      "license": "CC-BY-4.0 (http://creativecommons.org/licenses/by/4.0/)",
      "source": "https://sketchfab.com/models/b473cf63f2394f30abdcb525c3e1da31",
      "title": "Indoor Plant Lowpoly"
    },
    "generator": "Sketchfab-3.20.7",
    "version": "2.0"
  },
  "bufferViews": [
    {
      "buffer": 0,
      "byteLength": 31104,
      "byteOffset": 0,
      "name": "floatBufferViews",
      "target": 34963
    },
    {
      "buffer": 0,
      "byteLength": 15040,
      "byteOffset": 31104,
      "byteStride": 8,
      "name": "floatBufferViews",
      "target": 34962
    },
    {
      "buffer": 0,
      "byteLength": 45120,
      "byteOffset": 46144,
      "byteStride": 12,
      "name": "floatBufferViews",
      "target": 34962
    },
    {
      "buffer": 0,
      "byteLength": 30080,
      "byteOffset": 91264,
      "byteStride": 16,
      "name": "floatBufferViews",
      "target": 34962
    }
  ],
  "buffers": [
    {
      "byteLength": 121344,
      "uri": "scene.bin"
    }
  ],
  "images": [
    {
      "uri": "textures/FlowerPot_normal.png"
    },
    {
      "uri": "textures/FlowerPot_metallicRoughness.png"
    },
    {
      "uri": "textures/FlowerPot_baseColor.png"
    },
    {
      "uri": "textures/Plant_normal.png"
    },
    {
      "uri": "textures/Plant_baseColor.png"
    },
    {
      "uri": "textures/Material_81_baseColor.png"
    },
    {
      "uri": "textures/Material_81_normal.png"
    },
    {
      "uri": "textures/Dirt_normal.png"
    },
    {
      "uri": "textures/Dirt_metallicRoughness.png"
    },
    {
      "uri": "textures/Dirt_baseColor.png"
    }
  ],
  "materials": [
    {
      "doubleSided": true,
      "emissiveFactor": [
        0,
        0,
        0
      ],
      "name": "FlowerPot",
      "normalTexture": {
        "index": 0,
        "scale": 1,
        "texCoord": 0
      },
      "pbrMetallicRoughness": {
        "baseColorFactor": [
          1,
          1,
          1,
          1
        ],
        "baseColorTexture": {
          "index": 2,
          "texCoord": 0
        },
        "metallicFactor": 0,
        "metallicRoughnessTexture": {
          "index": 1,
          "texCoord": 0
        },
        "roughnessFactor": 1
      }
    },
    {
      "doubleSided": true,
      "emissiveFactor": [
        0,
        0,
        0
      ],
      "name": "Dirt",
      "normalTexture": {
        "index": 7,
        "scale": 1,
        "texCoord": 0
      },
      "pbrMetallicRoughness": {
        "baseColorFactor": [
          1,
          1,
          1,
          1
        ],
        "baseColorTexture": {
          "index": 9,
          "texCoord": 0
        },
        "metallicFactor": 0,
        "metallicRoughnessTexture": {
          "index": 8,
          "texCoord": 0
        },
        "roughnessFactor": 1
      }
    },
    {
      "doubleSided": true,
      "emissiveFactor": [
        0,
        0,
        0
      ],
      "name": "Plant",
      "normalTexture": {
        "index": 3,
        "scale": 1,
        "texCoord": 0
      },
      "pbrMetallicRoughness": {
        "baseColorFactor": [
          1,
          1,
          1,
          1
        ],
        "baseColorTexture": {
          "index": 4,
          "texCoord": 0
        },
        "metallicFactor": 0,
        "roughnessFactor": 0.89297135959999996
      }
    },
    {
      "alphaMode": "BLEND",
      "doubleSided": true,
      "emissiveFactor": [
        0,
        0,
        0
      ],
      "name": "Material_81",
      "normalTexture": {
        "index": 6,
        "scale": 1,
        "texCoord": 0
      },
      "pbrMetallicRoughness": {
        "baseColorFactor": [
          1,
          1,
          1,
          1
        ],
        "baseColorTexture": {
          "index": 5,
          "texCoord": 0
        },
        "metallicFactor": 0,
        "roughnessFactor": 0.86120105179999995
      }
    }
  ],
  "meshes": [
    {
      "name": "Plant_FlowerPot_0",
      "primitives": [
        {
          "attributes": {
            "NORMAL": 1,
            "POSITION": 0,
            "TANGENT": 2,
            "TEXCOORD_0": 3
          },
          "indices": 4,
          "material": 0,
          "mode": 4
        }
      ]
    },
    {
      "name": "Plant_Dirt_0",
      "primitives": [
        {
          "attributes": {
            "NORMAL": 6,
            "POSITION": 5,
            "TANGENT": 7,
            "TEXCOORD_0": 8
          },
          "indices": 9,
          "material": 1,
          "mode": 4
        }
      ]
    },
    {
      "name": "Plant001_Plant_0",
      "primitives": [
        {
          "attributes": {
            "NORMAL": 11,
            "POSITION": 10,
            "TANGENT": 12,
            "TEXCOORD_0": 13
          },
          "indices": 14,
          "material": 2,
          "mode": 4
        }
      ]
    },
    {
      "name": "Leafs_Material #81_0",
      "primitives": [
        {
          "attributes": {
            "NORMAL": 16,
            "POSITION": 15,
            "TANGENT": 17,
            "TEXCOORD_0": 18
          },
          "indices": 19,
          "material": 3,
          "mode": 4
        }
      ]
    }
  ],
  "nodes": [
    {
      "children": [
        1
      ],
      "name": "RootNode (gltf orientation matrix)",
      "rotation": [
        -0.70710678118654746,
        -0,
        -0,
        0.70710678118654757
      ]
    },
    {
      "children": [
        2
      ],
      "name": "RootNode (model correction matrix)"
    },
    {
      "children": [
        3
      ],
      "matrix": [
        1,
        0,
        0,
        0,
        0,
        0,
        1,
        0,
        0,
        -1,
        0,
        0,
        0,
        0,
        0,
        1
      ],
      "name": "981839d4e350418bb937d1a232f2ca00.fbx"
    },
    {
      "children": [
        4,
        7,
        9
      ],
      "name": "RootNode"
    },
    {
      "children": [
        5,
        6
      ],
      "matrix": [
        1,
        0,
        0,
        0,
        0,
        2.2204460492503131e-16,
        -1,
        0,
        0,
        1,
        2.2204460492503131e-16,
        0,
        6.031252384185791,
        60.12890625,
        -3.6384692192077637,
        1
      ],
      "name": "Plant"
    },
    {
      "mesh": 0,
      "name": "Plant_FlowerPot_0"
    },
    {
      "mesh": 1,
      "name": "Plant_Dirt_0"
    },
    {
      "children": [
        8
      ],
      "matrix": [
        1,
        0,
        0,
        0,
        0,
        2.2204460492503131e-16,
        -1,
        0,
        0,
        1,
        2.2204460492503131e-16,
        0,
        6.031252384185791,
        60.12890625,
        -3.6384692192077637,
        1
      ],
      "name": "Plant001"
    },
    {
      "mesh": 2,
      "name": "Plant001_Plant_0"
    },
    {
      "children": [
        10
      ],
      "matrix": [
        -0.64278762730970951,
        -8.3266726846886741e-17,
        0.7660444283313822,
        0,
        0.04641878957798079,
        0.69260843215041623,
        0.038949991034347244,
        0,
        -0.7631293940486924,
        0.087155801800767069,
        -0.64034162300395647,
        0,
        -21.404716491699219,
        140.62953186035156,
        -25.693220138549805,
        1
      ],
      "name": "Leafs"
    },
    {
      "mesh": 3,
      "name": "Leafs_Material #81_0"
    }
  ],
  "samplers": [
    {
      "magFilter": 9729,
      "minFilter": 9987,
      "wrapS": 10497,
      "wrapT": 10497
    }
  ],
  "scene": 0,
  "scenes": [
    {
      "name": "OSG_Scene",
      "nodes": [
        0
      ]
    }
  ],
  "textures": [
    {
      "sampler": 0,
      "source": 0
    },
    {
      "sampler": 0,
      "source": 1
    },
    {
      "sampler": 0,
      "source": 2
    },
    {
      "sampler": 0,
      "source": 3
    },
    {
      "sampler": 0,
      "source": 4
    },
    {
      "sampler": 0,
      "source": 5
    },
    {
      "sampler": 0,
      "source": 6
    },
    {
      "sampler": 0,
      "source": 7
    },
    {
      "sampler": 0,
      "source": 8
    },
    {
      "sampler": 0,
      "source": 9
    }
  ]
}

